<?xml version="1.0" standalone="no"?>
<!DOCTYPE svg PUBLIC "-//W3C//DTD SVG 20010904//EN"
 "http://www.w3.org/TR/2001/REC-SVG-20010904/DTD/svg10.dtd">
<svg version="1.0" xmlns="http://www.w3.org/2000/svg"
 width="200" height="50" viewBox="0 0 300.000000 69.000000"
 preserveAspectRatio="xMidYMid meet">
<metadata>
Created by potrace 1.10, written by Peter Selinger 2001-2011
</metadata>
<g transform="translate(0.000000,69.000000) scale(0.100000,-0.100000)"
fill="#635bff" stroke="none">
<path d="M260 370 l0 -170 28 0 27 0 -4 81 c-3 66 0 83 14 100 37 40 45 26 45
-81 l0 -100 30 0 30 0 0 95 c0 98 -12 144 -39 146 -29 2 -46 -3 -65 -19 -18
-17 -19 -15 -14 51 l6 67 -29 0 -29 0 0 -170z"/>
<path d="M930 513 c-13 -17 -20 -37 -17 -50 3 -17 0 -23 -14 -23 -12 0 -19 -7
-19 -20 0 -11 7 -20 15 -20 12 0 15 -18 15 -100 l0 -100 30 0 30 0 0 100 c0
92 2 100 19 100 11 0 22 8 24 18 4 16 5 16 6 0 0 -10 8 -18 16 -18 12 0 15
-18 15 -100 l0 -100 29 0 29 0 -5 100 -6 100 27 0 c19 0 26 5 26 20 0 15 -7
20 -25 20 -17 0 -25 5 -25 18 0 29 16 45 39 39 14 -3 24 1 31 13 13 24 4 30
-42 30 -47 0 -78 -28 -78 -70 0 -28 -2 -30 -41 -30 -38 0 -40 1 -37 28 2 21 8
27 28 27 27 0 45 19 35 35 -3 6 -24 10 -45 10 -30 0 -43 -6 -60 -27z"/>
<path d="M2115 531 c-16 -4 -45 -16 -64 -25 -55 -29 -141 -56 -178 -56 -35 0
-36 -2 -33 -62 1 -22 -3 -38 -9 -38 -15 0 -14 -63 2 -82 6 -9 33 -20 60 -23
l47 -7 0 37 c0 87 108 128 172 65 27 -28 30 -36 25 -75 l-5 -45 263 0 263 0
-5 45 c-5 39 -2 47 25 75 24 24 39 30 72 30 56 0 100 -42 100 -94 0 -29 4 -36
19 -36 10 0 23 6 28 13 16 19 26 87 13 87 -5 0 -10 8 -10 19 0 37 -51 56 -191
71 -86 8 -105 14 -185 57 l-89 48 -145 2 c-80 1 -158 -2 -175 -6z m113 -59 l3
-42 -100 0 c-56 0 -101 4 -101 9 0 21 83 65 140 74 48 8 55 4 58 -41z m229 19
c47 -21 51 -25 40 -42 -11 -18 -23 -19 -127 -17 l-115 3 -3 28 c-6 55 1 60 81
55 43 -3 93 -14 124 -27z m-453 -70 c3 -4 -11 -19 -32 -32 -20 -13 -46 -41
-57 -62 -35 -65 -66 -36 -41 37 11 33 21 42 52 52 48 15 71 16 78 5z m606 -19
c25 -8 47 -16 49 -18 2 -2 -6 -15 -16 -31 -11 -15 -23 -40 -27 -55 l-6 -28
-215 0 -215 0 -10 28 c-6 15 -17 40 -26 55 -9 16 -13 31 -10 34 3 3 82 5 177
4 158 -1 172 0 197 19 15 12 32 18 41 14 9 -4 36 -14 61 -22z"/>
<path d="M135 440 c-46 -18 -60 -48 -60 -127 0 -69 2 -76 28 -99 31 -26 62
-30 102 -12 28 12 30 19 14 35 -8 8 -20 8 -35 3 -37 -14 -54 11 -54 79 0 66
15 87 54 77 29 -7 54 16 34 31 -20 16 -61 22 -83 13z"/>
<path d="M515 441 c-27 -6 -32 -13 -27 -38 1 -5 21 -8 44 -8 39 0 43 -2 46
-27 3 -26 1 -28 -31 -28 -50 0 -79 -27 -79 -74 0 -65 59 -100 103 -60 17 15
19 15 34 0 9 -9 20 -16 25 -16 12 0 20 39 9 46 -5 3 -9 42 -9 88 0 66 -3 86
-17 98 -23 20 -60 27 -98 19z m65 -160 c0 -32 -22 -56 -45 -47 -18 6 -20 47
-3 64 23 23 48 14 48 -17z"/>
<path d="M1224 436 c-41 -18 -57 -61 -52 -137 4 -52 9 -66 32 -86 30 -25 71
-30 111 -11 27 12 29 16 17 35 -6 10 -15 10 -41 0 -30 -11 -34 -10 -52 12 -34
42 -26 51 46 51 65 0 65 0 65 29 0 53 -21 92 -56 107 -39 16 -32 16 -70 0z
m54 -38 c5 -7 13 -23 16 -35 7 -21 4 -23 -34 -23 -38 0 -41 2 -34 23 8 26 23
47 34 47 4 0 12 -6 18 -12z"/>
<path d="M1685 425 c-23 -22 -25 -23 -25 -5 0 15 -7 20 -25 20 l-25 0 0 -120
0 -120 28 0 28 0 -4 68 c-3 76 11 115 46 120 17 3 22 10 22 33 0 35 -13 37
-45 4z"/>
<path d="M684 424 c3 -9 6 -58 6 -109 0 -72 4 -97 16 -109 20 -21 53 -20 76 1
11 9 18 11 18 5 0 -7 12 -12 28 -12 l27 0 -3 120 c-3 120 -3 120 -28 120 -24
0 -24 -1 -24 -89 0 -69 -4 -93 -16 -106 -31 -30 -39 -12 -42 93 l-3 102 -30 0
c-24 0 -30 -4 -25 -16z"/>
<path d="M1390 332 c0 -93 3 -111 18 -125 25 -23 51 -21 79 5 20 18 23 19 23
5 0 -11 8 -17 25 -17 l25 0 0 120 0 120 -30 0 -30 0 0 -86 c0 -88 -10 -124
-35 -124 -21 0 -28 38 -23 130 l3 80 -27 0 -28 0 0 -108z"/>
<path d="M2733 352 c-26 -4 -63 -47 -63 -73 0 -31 21 -66 47 -78 35 -16 57
-14 85 9 68 53 17 156 -69 142z m51 -48 c19 -18 20 -28 6 -55 -21 -38 -80 -18
-80 28 0 38 47 55 74 27z"/>
<path d="M1981 324 c-28 -36 -27 -79 4 -109 50 -51 135 -15 135 58 0 72 -95
107 -139 51z m93 -23 c23 -25 13 -59 -20 -67 -30 -8 -54 11 -54 40 0 45 44 61
74 27z"/>
</g>
</svg>
